<mxfile host="65bd71144e">
    <diagram id="BVwhnDTUgmZeCnrwonJP" name="Page-1">
        <mxGraphModel dx="906" dy="585" grid="1" gridSize="10" guides="1" tooltips="1" connect="1" arrows="1" fold="1" page="1" pageScale="1" pageWidth="827" pageHeight="1169" math="0" shadow="0">
            <root>
                <mxCell id="0"/>
                <mxCell id="1" parent="0"/>
                <mxCell id="2" value="" style="rounded=0;whiteSpace=wrap;html=1;" vertex="1" parent="1">
                    <mxGeometry x="270" y="150" width="150" height="290" as="geometry"/>
                </mxCell>
                <mxCell id="3" value="" style="whiteSpace=wrap;html=1;aspect=fixed;" vertex="1" parent="1">
                    <mxGeometry x="270" y="216" width="150" height="150" as="geometry"/>
                </mxCell>
                <mxCell id="13" value="scrollHeight" style="shape=curlyBracket;whiteSpace=wrap;html=1;rounded=1;labelPosition=left;verticalLabelPosition=middle;align=right;verticalAlign=middle;fillColor=#660000;" vertex="1" parent="1">
                    <mxGeometry x="210" y="150" width="50" height="290" as="geometry"/>
                </mxCell>
                <mxCell id="17" value="clientHeight" style="shape=curlyBracket;whiteSpace=wrap;html=1;rounded=1;flipH=1;labelPosition=right;verticalLabelPosition=middle;align=left;verticalAlign=middle;fillColor=#660000;size=0.5;" vertex="1" parent="1">
                    <mxGeometry x="430" y="220" width="21" height="140" as="geometry"/>
                </mxCell>
                <mxCell id="19" value="scrollTop" style="shape=curlyBracket;whiteSpace=wrap;html=1;rounded=1;flipH=1;labelPosition=right;verticalLabelPosition=middle;align=left;verticalAlign=middle;fillColor=#660000;" vertex="1" parent="1">
                    <mxGeometry x="430" y="150" width="20" height="60" as="geometry"/>
                </mxCell>
            </root>
        </mxGraphModel>
    </diagram>
</mxfile>